<svg width="239" height="100" viewBox="0 0 239 100" fill="none" xmlns="http://www.w3.org/2000/svg">
<path d="M8.29194 62.2639L29.6618 100H66.0202L44.3536 62.2639H8.29194Z" fill="white"/>
<path d="M87.8286 9.98916H100.749C103.442 9.98916 105.738 10.4488 107.638 11.368C109.538 12.2873 110.995 13.6478 112.009 15.4495C113.024 17.2512 113.531 19.4757 113.531 22.1232C113.531 24.2926 113.236 26.1495 112.646 27.6938C112.055 29.2197 111.216 30.4975 110.128 31.527C109.04 32.5382 107.739 33.3471 106.227 33.9538L103.765 35.4154H93.279L93.2513 28.7141H100.528C101.634 28.7141 102.547 28.4751 103.267 27.9971C104.004 27.5007 104.549 26.8113 104.899 25.9288C105.268 25.028 105.452 23.98 105.452 22.785C105.452 21.5165 105.286 20.4318 104.954 19.5309C104.641 18.6117 104.134 17.913 103.433 17.435C102.75 16.9386 101.856 16.6904 100.749 16.6904H95.935V50.1417H87.8286V9.98916ZM106.116 50.1417L98.7293 32.244L107.223 32.2165L114.776 49.7556V50.1417H106.116Z" fill="white"/>
<path d="M127.281 9.98916V50.1417H119.175V9.98916H127.281ZM147.285 9.98916L134.226 29.9275L126.23 39.8554L124.681 31.7752L129.854 23.1711L137.435 9.98916H147.285ZM137.933 50.1417L129.135 31.6925L135.083 26.4528L147.478 50.1417H137.933Z" fill="white"/>
<path d="M177.967 26.9492V33.6505C177.967 36.4817 177.617 38.9637 176.916 41.0963C176.233 43.2106 175.256 44.9847 173.983 46.4188C172.729 47.8344 171.207 48.9007 169.418 49.6177C167.647 50.3347 165.683 50.6932 163.525 50.6932C161.367 50.6932 159.393 50.3347 157.604 49.6177C155.834 48.9007 154.303 47.8344 153.012 46.4188C151.739 44.9847 150.752 43.2106 150.051 41.0963C149.35 38.9637 149 36.4817 149 33.6505V26.9492C149 24.0444 149.341 21.5073 150.024 19.3379C150.706 17.1501 151.693 15.33 152.984 13.8776C154.275 12.4068 155.806 11.3037 157.577 10.5683C159.347 9.81451 161.312 9.43762 163.47 9.43762C165.628 9.43762 167.592 9.81451 169.363 10.5683C171.133 11.3037 172.664 12.4068 173.955 13.8776C175.246 15.33 176.233 17.1501 176.916 19.3379C177.617 21.5073 177.967 24.0444 177.967 26.9492ZM169.916 33.6505V26.894C169.916 24.982 169.778 23.355 169.501 22.0129C169.224 20.6524 168.809 19.5401 168.256 18.676C167.703 17.8119 167.029 17.1776 166.236 16.7732C165.443 16.3687 164.521 16.1665 163.47 16.1665C162.418 16.1665 161.487 16.3687 160.675 16.7732C159.882 17.1776 159.209 17.8119 158.656 18.676C158.121 19.5401 157.715 20.6524 157.438 22.0129C157.18 23.355 157.051 24.982 157.051 26.894V33.6505C157.051 35.489 157.189 37.0609 157.466 38.3662C157.743 39.6715 158.158 40.7378 158.711 41.5652C159.264 42.3925 159.938 43.0084 160.731 43.4128C161.542 43.7989 162.474 43.992 163.525 43.992C164.558 43.992 165.471 43.7989 166.264 43.4128C167.076 43.0084 167.749 42.3925 168.284 41.5652C168.819 40.7378 169.224 39.6715 169.501 38.3662C169.778 37.0609 169.916 35.489 169.916 33.6505Z" fill="white"/>
<path d="M194.373 50.1417H187.263L187.318 43.468H194.373C196.329 43.468 197.85 43.1187 198.938 42.42C200.027 41.7214 200.792 40.6183 201.235 39.1108C201.696 37.6032 201.926 35.6268 201.926 33.1817V26.9216C201.926 25.0647 201.807 23.4928 201.567 22.2059C201.327 20.9006 200.921 19.8526 200.349 19.0621C199.778 18.2532 199.012 17.6556 198.053 17.2696C197.094 16.8835 195.904 16.6904 194.484 16.6904H187.125V9.98916H194.484C196.808 9.98916 198.92 10.3661 200.82 11.1198C202.72 11.8736 204.352 12.9767 205.717 14.4291C207.082 15.8631 208.133 17.6373 208.871 19.7515C209.609 21.8658 209.978 24.2742 209.978 26.9768V33.1817C209.978 35.9026 209.609 38.311 208.871 40.4069C208.133 42.5028 207.082 44.2769 205.717 45.7293C204.37 47.1633 202.738 48.2572 200.82 49.011C198.902 49.7648 196.753 50.1417 194.373 50.1417ZM191.966 9.98916V50.1417H183.86V9.98916H191.966Z" fill="white"/>
<path d="M239 43.468V50.1417H221.487V43.468H239ZM224.005 9.98916V50.1417H215.898V9.98916H224.005ZM236.648 26.2598V32.7404H221.487V26.2598H236.648ZM238.945 9.98916V16.6904H221.487V9.98916H238.945Z" fill="white"/>
<path d="M137.787 79.3117V89.8675C137.52 90.2313 137.015 90.7069 136.271 91.2945C135.527 91.8821 134.545 92.4138 133.324 92.8894C132.103 93.3511 130.636 93.582 128.924 93.582C127.436 93.582 126.081 93.3161 124.86 92.7845C123.653 92.2529 122.614 91.4764 121.744 90.4551C120.874 89.4338 120.2 88.1956 119.723 86.7406C119.26 85.2716 119.028 83.6068 119.028 81.7461V73.4987C119.028 71.7079 119.253 70.113 119.702 68.714C120.151 67.3009 120.797 66.1118 121.639 65.1464C122.481 64.1671 123.492 63.4256 124.671 62.9219C125.85 62.4043 127.162 62.1455 128.608 62.1455C130.489 62.1455 132.082 62.4812 133.387 63.1528C134.692 63.8243 135.71 64.8037 136.44 66.0908C137.184 67.3779 137.633 68.9448 137.787 70.7916H136.671C136.503 69.2386 136.117 67.8955 135.513 66.7623C134.924 65.6291 134.068 64.7547 132.945 64.1391C131.836 63.5095 130.39 63.1948 128.608 63.1948C127.288 63.1948 126.102 63.4256 125.05 63.8873C124.011 64.349 123.127 65.0275 122.397 65.9229C121.667 66.8043 121.106 67.8815 120.713 69.1547C120.334 70.4138 120.144 71.8478 120.144 73.4567V81.7461C120.144 83.4249 120.341 84.9289 120.734 86.258C121.141 87.5731 121.723 88.6993 122.481 89.6367C123.239 90.574 124.158 91.2875 125.239 91.7772C126.32 92.2669 127.541 92.5117 128.902 92.5117C130.306 92.5117 131.541 92.3158 132.608 91.9241C133.689 91.5184 134.573 91.0637 135.261 90.56C135.948 90.0564 136.426 89.6507 136.692 89.3429V80.382H128.86V79.3117H137.787Z" fill="white"/>
<path d="M152.925 63.4676L143.598 93.1203H142.398L152.167 62.5652H153.177L152.925 63.4676ZM161.978 93.1203L152.693 63.4676L152.483 62.5652H153.43L163.199 93.1203H161.978ZM159.367 82.9213V83.9705H146.251V82.9213H159.367Z" fill="white"/>
<path d="M168.568 62.5652H169.705L180.274 91.2945L190.885 62.5652H191.98L180.737 93.1203H179.874L168.568 62.5652ZM168.168 62.5652H169.22L169.284 78.2834V93.1203H168.168V62.5652ZM191.369 62.5652H192.485V93.1203H191.369V62.5652Z" fill="white"/>
<path d="M216.212 92.05V93.1203H200.843V92.05H216.212ZM201.475 62.5652V93.1203H200.38V62.5652H201.475ZM214.423 76.8564V77.9267H200.843V76.8564H214.423ZM216.212 62.5652V63.6145H200.843V62.5652H216.212Z" fill="white"/>
<path d="M237.477 85.7963C237.477 84.831 237.336 83.9705 237.056 83.2151C236.775 82.4596 236.326 81.781 235.708 81.1795C235.091 80.5639 234.277 80.0043 233.266 79.5006C232.255 78.983 231.02 78.4863 229.56 78.0106C228.241 77.5909 227.041 77.1432 225.96 76.6675C224.894 76.1919 223.981 75.6392 223.223 75.0097C222.479 74.3801 221.904 73.6316 221.497 72.7642C221.09 71.8828 220.886 70.8335 220.886 69.6164C220.886 68.4412 221.104 67.3919 221.539 66.4685C221.974 65.5451 222.578 64.7617 223.35 64.1181C224.136 63.4746 225.055 62.9849 226.108 62.6491C227.174 62.3134 228.325 62.1455 229.56 62.1455C231.259 62.1455 232.754 62.4533 234.045 63.0688C235.35 63.6844 236.368 64.6008 237.098 65.818C237.842 67.0351 238.214 68.5531 238.214 70.3718H237.14C237.14 68.8469 236.824 67.5528 236.192 66.4895C235.561 65.4122 234.677 64.5938 233.54 64.0342C232.403 63.4746 231.076 63.1948 229.56 63.1948C227.932 63.1948 226.55 63.4956 225.413 64.0971C224.29 64.6847 223.434 65.4612 222.844 66.4265C222.269 67.3779 221.981 68.4062 221.981 69.5114C221.981 70.5187 222.15 71.4001 222.486 72.1556C222.837 72.9111 223.343 73.5757 224.002 74.1493C224.676 74.7229 225.504 75.2405 226.487 75.7022C227.469 76.1639 228.606 76.6046 229.897 77.0243C231.399 77.444 232.698 77.9337 233.792 78.4933C234.887 79.0389 235.792 79.6685 236.508 80.382C237.224 81.0955 237.757 81.9 238.108 82.7953C238.459 83.6767 238.635 84.6631 238.635 85.7543C238.635 87.0135 238.403 88.1257 237.94 89.091C237.491 90.0564 236.859 90.8678 236.045 91.5254C235.231 92.1829 234.284 92.6866 233.203 93.0363C232.136 93.3721 230.992 93.54 229.771 93.54C228.662 93.54 227.539 93.3931 226.402 93.0993C225.28 92.7915 224.241 92.2878 223.286 91.5883C222.346 90.8888 221.588 89.9584 221.013 88.7972C220.451 87.636 220.171 86.195 220.171 84.4742H221.286C221.286 86.0271 221.546 87.3212 222.065 88.3565C222.599 89.3778 223.286 90.1893 224.129 90.7909C224.985 91.3925 225.904 91.8262 226.887 92.092C227.883 92.3438 228.845 92.4697 229.771 92.4697C231.273 92.4697 232.599 92.1899 233.75 91.6303C234.915 91.0567 235.827 90.2732 236.487 89.2799C237.147 88.2726 237.477 87.1114 237.477 85.7963Z" fill="white"/>
<path fill-rule="evenodd" clip-rule="evenodd" d="M38.6957 77.1411C60.0668 77.1411 77.3915 59.8724 77.3915 38.5705C77.3915 17.2686 60.0668 0 38.6957 0C17.3247 0 0 17.2686 0 38.5705C0 59.8724 17.3247 77.1411 38.6957 77.1411ZM62.0473 44.2143C62.6693 43.5943 63.0188 42.7534 63.0188 41.8766V35.2645C63.0188 34.3877 62.6693 33.5468 62.0473 32.9267C61.4253 32.3067 60.5817 31.9584 59.702 31.9584H45.3293V17.6322C45.3293 16.7554 44.9798 15.9145 44.3578 15.2945C43.7358 14.6745 42.8922 14.3262 42.0125 14.3262H35.379C34.4993 14.3262 33.6557 14.6745 33.0336 15.2945C32.4116 15.9145 32.0622 16.7554 32.0622 17.6322V31.9584H17.6895C16.8098 31.9584 15.9662 32.3067 15.3441 32.9267C14.7221 33.5468 14.3727 34.3877 14.3727 35.2645V41.8766C14.3727 42.7534 14.7221 43.5943 15.3441 44.2143C15.9662 44.8343 16.8098 45.1826 17.6895 45.1826H32.0622V59.5088C32.0622 60.3856 32.4116 61.2265 33.0336 61.8466C33.6557 62.4666 34.4993 62.8149 35.379 62.8149H42.0125C42.8922 62.8149 43.7358 62.4666 44.3578 61.8466C44.9798 61.2265 45.3293 60.3856 45.3293 59.5088V45.1826H59.702C60.5817 45.1826 61.4253 44.8343 62.0473 44.2143Z" fill="white"/>
<path d="M40.6305 21.2138C40.6305 22.2789 39.7643 23.1423 38.6957 23.1423C37.6272 23.1423 36.7609 22.2789 36.7609 21.2138C36.7609 20.1487 37.6272 19.2853 38.6957 19.2853C39.7643 19.2853 40.6305 20.1487 40.6305 21.2138Z" fill="#E0D908"/>
<path d="M56.1088 40.4991C55.0403 40.4991 54.174 39.6356 54.174 38.5705C54.174 37.5054 55.0403 36.642 56.1088 36.642C57.1774 36.642 58.0436 37.5054 58.0436 38.5705C58.0436 39.6356 57.1774 40.4991 56.1088 40.4991Z" fill="#E0084C"/>
<path d="M40.6305 55.9273C40.6305 56.9924 39.7643 57.8558 38.6957 57.8558C37.6272 57.8558 36.7609 56.9924 36.7609 55.9273C36.7609 54.8622 37.6272 53.9987 38.6957 53.9987C39.7643 53.9987 40.6305 54.8622 40.6305 55.9273Z" fill="#8DE008"/>
<path d="M21.2827 40.4991C20.2141 40.4991 19.3479 39.6356 19.3479 38.5705C19.3479 37.5054 20.2141 36.642 21.2827 36.642C22.3512 36.642 23.2174 37.5054 23.2174 38.5705C23.2174 39.6356 22.3512 40.4991 21.2827 40.4991Z" fill="#0886E0"/>
</svg>
